<svg width="20" height="18" viewBox="0 0 20 18" fill="none" xmlns="http://www.w3.org/2000/svg">
<path d="M4.98959 0.0851881C5.87425 -0.0655175 6.78147 -0.0158034 7.64436 0.230666C8.50725 0.477135 9.30382 0.914075 9.97535 1.50928L10.0123 1.54226L10.0463 1.51228C10.6872 0.949932 11.4407 0.530699 12.2565 0.282545C13.0723 0.0343901 13.9316 -0.0369798 14.7772 0.0731959L15.0231 0.109173C16.0889 0.293165 17.0851 0.761912 17.9063 1.46578C18.7274 2.16964 19.3428 3.08242 19.6874 4.10745C20.0321 5.13249 20.093 6.23162 19.8638 7.28846C19.6346 8.34529 19.1239 9.32049 18.3856 10.1108L18.2057 10.2957L18.1577 10.3366L10.711 17.7109C10.5392 17.881 10.3115 17.983 10.0702 17.9981C9.82888 18.0131 9.59028 17.9402 9.39861 17.7929L9.30465 17.7109L1.81501 10.2937C1.02158 9.52182 0.457317 8.54546 0.184698 7.47274C-0.0879202 6.40001 -0.0582509 5.27277 0.27042 4.21586C0.599092 3.15896 1.21394 2.21363 2.04687 1.48457C2.8798 0.755505 3.8983 0.271166 4.98959 0.0851881Z" fill="white"/>
</svg>
